<svg width="32" height="33" viewBox="0 0 32 33" fill="none" xmlns="http://www.w3.org/2000/svg">
<g clip-path="url(#clip0_301_18756)">
<path d="M16 3.08267C19.6226 3.08267 20.0746 3.09601 21.496 3.16267C22.916 3.22934 23.8826 3.45201 24.7333 3.78267C25.6133 4.12134 26.3546 4.58001 27.096 5.32001C27.774 5.98653 28.2986 6.79279 28.6333 7.68267C28.9626 8.53201 29.1866 9.50001 29.2533 10.92C29.316 12.3413 29.3333 12.7933 29.3333 16.416C29.3333 20.0387 29.32 20.4907 29.2533 21.912C29.1866 23.332 28.9626 24.2987 28.6333 25.1493C28.2995 26.0397 27.7748 26.8462 27.096 27.512C26.4292 28.1898 25.623 28.7143 24.7333 29.0493C23.884 29.3787 22.916 29.6027 21.496 29.6693C20.0746 29.732 19.6226 29.7493 16 29.7493C12.3773 29.7493 11.9253 29.736 10.504 29.6693C9.08396 29.6027 8.11729 29.3787 7.26663 29.0493C6.37639 28.7153 5.57 28.1906 4.90396 27.512C4.22583 26.8456 3.7012 26.0393 3.36663 25.1493C3.03596 24.3 2.81329 23.332 2.74663 21.912C2.68396 20.4907 2.66663 20.0387 2.66663 16.416C2.66663 12.7933 2.67996 12.3413 2.74663 10.92C2.81329 9.49867 3.03596 8.53334 3.36663 7.68267C3.70027 6.79224 4.22503 5.98577 4.90396 5.32001C5.57019 4.64165 6.37653 4.11698 7.26663 3.78267C8.11729 3.45201 9.08263 3.22934 10.504 3.16267C11.9253 3.10001 12.3773 3.08267 16 3.08267ZM16 9.74934C14.2318 9.74934 12.5362 10.4517 11.2859 11.702C10.0357 12.9522 9.33329 14.6479 9.33329 16.416C9.33329 18.1841 10.0357 19.8798 11.2859 21.1301C12.5362 22.3803 14.2318 23.0827 16 23.0827C17.7681 23.0827 19.4638 22.3803 20.714 21.1301C21.9642 19.8798 22.6666 18.1841 22.6666 16.416C22.6666 14.6479 21.9642 12.9522 20.714 11.702C19.4638 10.4517 17.7681 9.74934 16 9.74934V9.74934ZM24.6666 9.41601C24.6666 8.97398 24.491 8.55005 24.1785 8.23749C23.8659 7.92493 23.442 7.74934 23 7.74934C22.5579 7.74934 22.134 7.92493 21.8214 8.23749C21.5089 8.55005 21.3333 8.97398 21.3333 9.41601C21.3333 9.85803 21.5089 10.282 21.8214 10.5945C22.134 10.9071 22.5579 11.0827 23 11.0827C23.442 11.0827 23.8659 10.9071 24.1785 10.5945C24.491 10.282 24.6666 9.85803 24.6666 9.41601ZM16 12.416C17.0608 12.416 18.0782 12.8374 18.8284 13.5876C19.5785 14.3377 20 15.3551 20 16.416C20 17.4769 19.5785 18.4943 18.8284 19.2444C18.0782 19.9946 17.0608 20.416 16 20.416C14.9391 20.416 13.9217 19.9946 13.1715 19.2444C12.4214 18.4943 12 17.4769 12 16.416C12 15.3551 12.4214 14.3377 13.1715 13.5876C13.9217 12.8374 14.9391 12.416 16 12.416V12.416Z" fill="#5243C2"/>
</g>
<defs>
<clipPath id="clip0_301_18756">
<rect width="32" height="32" fill="white" transform="translate(0 0.416016)"/>
</clipPath>
</defs>
</svg>
