<svg width="32" height="33" viewBox="0 0 32 33" fill="none" xmlns="http://www.w3.org/2000/svg">
<g clip-path="url(#clip0_301_18755)">
<path d="M29.5493 7.95734C28.5314 8.4076 27.4519 8.70331 26.3466 8.83468C27.5116 8.13792 28.3836 7.04136 28.7999 5.74934C27.7066 6.40001 26.5079 6.85601 25.2586 7.10268C24.4194 6.20478 23.3071 5.60929 22.0946 5.40879C20.882 5.20828 19.6372 5.414 18.5536 5.99395C17.4701 6.5739 16.6085 7.49559 16.1028 8.61573C15.5971 9.73588 15.4756 10.9917 15.7573 12.188C13.5401 12.0769 11.3711 11.5007 9.391 10.4969C7.41094 9.49308 5.66412 8.08407 4.26395 6.36134C3.76833 7.21261 3.50789 8.18031 3.50928 9.16534C3.50928 11.0987 4.49328 12.8067 5.98928 13.8067C5.10396 13.7788 4.23812 13.5397 3.46395 13.1093V13.1787C3.46422 14.4663 3.90977 15.7142 4.72508 16.7108C5.54038 17.7073 6.67526 18.3913 7.93728 18.6467C7.11543 18.8694 6.25369 18.9022 5.41728 18.7427C5.7731 19.851 6.46662 20.8203 7.40074 21.5148C8.33485 22.2094 9.46279 22.5944 10.6266 22.616C9.46992 23.5244 8.14552 24.196 6.72912 24.5922C5.31273 24.9885 3.83212 25.1017 2.37195 24.9253C4.92088 26.5646 7.88808 27.4348 10.9186 27.432C21.1759 27.432 26.7853 18.9347 26.7853 11.5653C26.7853 11.3253 26.7786 11.0827 26.7679 10.8453C27.8598 10.0562 28.8021 9.0787 29.5506 7.95868L29.5493 7.95734Z" fill="#5243C2"/>
</g>
<defs>
<clipPath id="clip0_301_18755">
<rect width="32" height="32" fill="white" transform="translate(0 0.416016)"/>
</clipPath>
</defs>
</svg>
